Land_normalized_Motion_pl09
version=1
nRows=12
nColumns=43
inDegrees=yes
endheader
time		pelvis_tilt		pelvis_list		pelvis_rotation		pelvis_tx		pelvis_ty		pelvis_tz		hip_flexion_r		hip_adduction_r		hip_rotation_r		knee_angle_r		ankle_angle_r		subtalar_angle_r		mtp_angle_r		hip_flexion_l		hip_adduction_l		hip_rotation_l		knee_angle_l		ankle_angle_l		subtalar_angle_l		mtp_angle_l		lumbar_extension		lumbar_bending		lumbar_rotation		neck_flexion		neck_lateral_bending		neck_rotation		arm_flex_r		arm_add_r		arm_rot_r		elbow_flex_r		pro_sup_r		wrist_flex_r		wrist_dev_r		hand_finger_flex_r		arm_flex_l		arm_add_l		arm_rot_l		elbow_flex_l		pro_sup_l		wrist_flex_l		wrist_dev_l		hand_finger_flex_l		
2.830303		0.242486		1.763151		92.419323		-0.010279		0.517709		0.473806		81.802675		-1.372630		-0.759200		-119.951135		10.285982		-13.135277		13.715465		82.228688		-0.857884		2.334830		-119.542559		11.846712		-5.294627		21.780318		-58.386868		1.202192		-0.563175		13.251746		4.347070		-3.013539		35.277550		-25.437027		-4.019591		75.469186		114.272384		-17.878599		-18.002589		-28.486196		38.292672		-37.929467		0.124597		88.550478		120.771515		-32.084242		-9.260782		-8.036313		
2.833409		0.226705		1.527477		92.313456		-0.009740		0.514253		0.473797		82.571256		-1.215039		-0.730912		-120.452768		10.268157		-13.211019		13.763640		82.796456		-1.069584		2.279865		-119.963549		12.208688		-5.231079		21.881352		-58.843535		1.085878		-0.488434		13.699843		4.297094		-3.083137		37.438847		-25.775979		-3.048720		75.931361		114.496058		-17.646632		-18.057627		-28.518763		41.282316		-38.405036		1.885823		88.184677		121.016844		-31.496691		-9.360113		-8.125330		
2.836515		0.145711		1.341200		92.161249		-0.009005		0.511072		0.473804		83.264878		-1.032789		-0.662009		-120.919944		10.192654		-13.319728		13.823650		83.252913		-1.370909		2.126969		-120.335671		12.620290		-5.093661		22.018100		-59.327041		0.824757		-0.263598		14.006575		4.384370		-3.234629		39.421281		-26.188511		-2.281518		76.414958		114.673153		-17.590231		-18.025551		-28.692661		44.634191		-38.650719		4.032306		87.601543		121.256006		-30.979381		-9.427288		-8.368045		
2.839621		-0.041418		1.231855		91.921806		-0.008025		0.508173		0.473804		83.852011		-0.782049		-0.487498		-121.369404		10.159634		-13.374684		13.852748		83.565520		-1.801786		1.815173		-120.678096		13.075498		-4.972258		22.126095		-59.894141		0.378521		-0.005143		14.275450		4.593239		-3.409824		41.305520		-26.694033		-1.554849		76.963631		114.810472		-17.698340		-17.858146		-29.018565		48.166374		-38.763469		6.367376		86.888319		121.527198		-30.535724		-9.610656		-8.639987		
2.842727		-0.041989		0.970324		91.769353		-0.007430		0.504993		0.473885		84.577980		-0.630780		-0.477793		-121.776241		10.188749		-13.336126		13.866416		84.099324		-2.139970		1.669765		-121.030122		13.426841		-5.009893		22.168750		-60.280810		0.232769		0.053291		14.665724		4.492821		-3.246817		43.558599		-26.890529		-0.633454		77.206648		114.992188		-17.448732		-17.794957		-29.032785		51.012601		-38.983951		7.854922		86.548798		121.823582		-29.890778		-9.805398		-8.575048		
2.845833		-0.361767		0.934815		91.404435		-0.006093		0.502641		0.473963		85.044866		-0.273310		-0.202357		-122.160911		10.180453		-13.284334		13.854792		84.211132		-2.744024		1.166357		-121.300805		13.879923		-4.934643		22.197879		-60.935004		-0.469362		0.296167		14.863190		4.948969		-3.351910		45.368893		-27.345968		-0.038008		77.675475		115.061309		-17.820132		-17.541910		-29.481351		54.738250		-38.856267		10.298499		85.642347		122.247221		-29.527202		-10.081382		-8.821714		
2.848939		-0.506521		0.647026		91.228725		-0.005316		0.499761		0.474107		85.765840		-0.116483		-0.070862		-122.544303		10.272025		-13.188864		13.850971		84.683882		-3.125765		0.837470		-121.574449		14.280584		-5.002968		22.195512		-61.331330		-0.797555		0.411664		15.378847		5.024772		-3.502650		47.350020		-27.737857		0.671081		78.084114		115.165463		-17.750079		-17.470068		-29.655425		57.884344		-38.811413		12.120441		85.071179		122.647997		-29.112596		-10.382912		-8.907615		
2.852045		-0.773127		0.428309		90.990889		-0.004278		0.497306		0.474322		86.379348		0.099413		0.193951		-122.878254		10.368692		-13.019206		13.846094		84.993411		-3.569546		0.384331		-121.775672		14.698689		-5.013922		22.156482		-61.799754		-1.346067		0.528695		15.807330		5.414061		-3.637378		49.259281		-28.106956		1.211466		78.335090		115.202842		-17.913138		-17.411462		-29.982668		61.252342		-38.505251		14.106843		84.280842		123.204736		-28.796108		-10.734842		-9.076404		
2.855152		-1.003880		0.083159		90.836853		-0.003358		0.494730		0.474611		87.116622		0.210232		0.418384		-123.192177		10.483720		-12.755259		13.852561		85.449794		-3.916685		-0.002209		-121.939839		15.099567		-5.059411		22.071762		-62.140514		-1.801678		0.648622		16.302533		5.739871		-3.897037		51.109839		-28.527728		1.678425		78.603326		115.190044		-17.936054		-17.416340		-30.294740		64.528721		-38.121211		16.038409		83.486753		123.792363		-28.554381		-11.102921		-9.275757		
2.858258		-1.094023		-0.331736		90.737848		-0.002587		0.492076		0.474887		87.891789		0.262350		0.491578		-123.484095		10.622302		-12.499676		13.885836		86.024225		-4.209759		-0.223077		-122.108127		15.494425		-5.091264		22.025079		-62.382887		-2.067857		0.684662		16.755259		5.925899		-3.952715		53.118169		-28.848758		2.358908		78.699820		115.299360		-17.795669		-17.528798		-30.426782		67.382832		-37.841466		17.458912		82.910770		124.354943		-28.127740		-11.442907		-9.308963		
2.861364		-1.350405		-0.724991		90.599330		-0.001525		0.489715		0.475225		88.635997		0.336373		0.746020		-123.743639		10.822381		-12.010619		13.961302		86.493330		-4.521499		-0.565401		-122.207929		15.893342		-5.015507		21.900884		-62.641490		-2.597561		0.788665		17.186097		6.474899		-4.234435		54.861162		-29.233999		2.678243		78.761270		115.252224		-17.947690		-17.656423		-30.856414		70.612836		-37.171759		19.313407		81.907160		125.148001		-27.987431		-11.872688		-9.619417		
2.864470		-1.412503		-1.222283		90.524617		-0.000773		0.487146		0.475585		89.460690		0.324767		0.780091		-123.973094		10.992532		-11.657017		14.026260		87.156055		-4.781468		-0.704651		-122.333097		16.257223		-5.016127		21.833654		-62.773242		-2.828040		0.834807		17.607242		6.611693		-4.339741		56.805757		-29.544953		3.287314		78.784314		115.347680		-17.718746		-17.759512		-30.968039		73.288772		-36.756362		20.566897		81.272922		125.715872		-27.568978		-12.195478		-9.664615		
